<svg width="100%" height="100%" viewBox="0 0 100 100" xmlns="http://www.w3.org/2000/svg"><path d="M 97.0,50.0 L 98.73929398444704,51.53169401952034 L 99.75479570665408,53.13030641615747 L 99.63191941777885,54.69159769982753 L 98.37884213182606,56.11166905645598 L 96.42135200797148,57.35241985689085 L 94.43537890576864,58.47650186572306 L 93.08363182371059,59.630332691989715 L 92.75987659215022,60.97887028357365 L 93.44046382788486,62.6206214108919 L 94.69965626587222,64.52379873562253 L 95.88050366131928,66.51799771326591 L 96.35230479355391,68.35217574009687 L 95.75297695849741,69.79908112779793 L 94.1224034578473,70.76242706849888 L 91.87730663685329,71.3375534877587 L 89.64117353301612,71.79291956815652 L 87.99903232829175,72.47256507372694 L 87.27440177227874,73.65505466910187 L 87.41434969885587,75.42676579886947 L 88.02379873562253,77.62590685774623 L 88.53060997155566,79.88740470317964 L 88.41252733176296,81.77760623546845 L 87.39541433478314,82.96849254666972 L 85.54695651455293,83.38081405874149 L 83.23401871576775,83.23401871576775 L 80.96661389855524,82.97609446305977 L 79.19482279375356,83.11502621048007 L 78.14024880090838,84.01571748916123 L 77.72585834020013,85.74396119175923 L 77.62590685774623,88.0237987356225 L 77.40907171923081,90.33122428295293 L 76.7126640589238,92.09242322491069 L 75.37732800680794,92.91071821007895 L 73.49192579740472,92.73165439110707 L 71.3375534877587,91.87730663685329 L 69.26082633861796,90.93133947395853 L 67.53282059187144,90.51595785579681 L 66.25153221226287,91.04668487994172 L 65.32336678979148,92.5622886203779 L 64.52379873562253,94.69965626587222 L 63.60454255679566,96.82714262574778 L 62.3979791099227,98.2869405539411 L 60.875131999285294,98.65254379853167 L 59.13734170533506,97.89962266272809 L 57.352419856890855,96.42135200797148 L 55.66965489858863,94.87993979173486 L 54.15458375211281,93.95090525491067 L 52.772002419598,94.05971676560344 L 51.42091733382372,95.21432268993172 L 50.0,97.0 L 48.46830598047966,98.73929398444704 L 46.86969358384253,99.75479570665408 L 45.30840230017247,99.63191941777885 L 43.88833094354403,98.37884213182608 L 42.64758014310915,96.42135200797149 L 41.52349813427694,94.43537890576864 L 40.36966730801029,93.08363182371059 L 39.021129716426344,92.75987659215022 L 37.37937858910811,93.44046382788484 L 35.476201264377494,94.69965626587219 L 33.48200228673409,95.8805036613193 L 31.647824259903143,96.35230479355391 L 30.20091887220206,95.75297695849741 L 29.23757293150112,94.1224034578473 L 28.662446512241306,91.87730663685329 L 28.207080431843487,89.64117353301609 L 27.527434926273052,87.99903232829175 L 26.34494533089811,87.27440177227874 L 24.573234201130518,87.41434969885587 L 22.374093142253773,88.02379873562253 L 20.112595296820345,88.53060997155566 L 18.222393764531542,88.41252733176296 L 17.031507453330278,87.39541433478314 L 16.619185941258507,85.5469565145529 L 16.76598128423226,83.23401871576775 L 17.02390553694024,80.96661389855525 L 16.884973789519933,79.19482279375354 L 15.984282510838781,78.14024880090838 L 14.256038808240774,77.72585834020013 L 11.97620126437748,77.62590685774623 L 9.668775717047083,77.40907171923081 L 7.907576775089325,76.71266405892382 L 7.089281789921053,75.37732800680794 L 7.268345608892922,73.49192579740472 L 8.122693363146723,71.3375534877587 L 9.068660526041448,69.26082633861797 L 9.484042144203201,67.53282059187146 L 8.953315120058278,66.25153221226287 L 7.437711379622087,65.32336678979148 L 5.300343734127793,64.52379873562253 L 3.1728573742522244,63.60454255679566 L 1.7130594460589208,62.39797910992272 L 1.347456201468333,60.8751319992853 L 2.1003773372719152,59.13734170533505 L 3.5786479920285146,57.35241985689086 L 5.120060208265151,55.66965489858863 L 6.049094745089334,54.15458375211281 L 5.94028323439656,52.772002419598 L 4.785677310068273,51.42091733382372 L 3.000000000000007,50.00000000000001 L 1.2607060155529695,48.46830598047968 L 0.24520429334590688,46.86969358384254 L 0.3680805822211397,45.30840230017248 L 1.6211578681739311,43.88833094354402 L 3.5786479920285217,42.64758014310915 L 5.56462109423137,41.523498134276934 L 6.916368176289403,40.369667308010285 L 7.240123407849765,39.02112971642636 L 6.559536172115173,37.37937858910813 L 5.300343734127807,35.47620126437749 L 4.1194963386806975,33.48200228673407 L 3.6476952064460875,31.647824259903132 L 4.2470230415025725,30.200918872202074 L 5.877596542152666,29.237572931501134 L 8.122693363146738,28.662446512241296 L 10.358826466983885,28.20708043184348 L 12.000967671708246,27.527434926273056 L 12.725598227721271,26.34494533089814 L 12.585650301144128,24.57323420113055 L 11.976201264377494,22.374093142253813 L 11.46939002844433,20.112595296820345 L 11.587472668237034,18.22239376453155 L 12.60458566521686,17.031507453330278 L 14.453043485447061,16.619185941258515 L 16.76598128423222,16.765981284232254 L 19.033386101444773,17.02390553694024 L 20.80517720624644,16.884973789519925 L 21.859751199091633,15.984282510838774 L 22.274141659799856,14.256038808240774 L 22.37409314225375,11.976201264377465 L 22.590928280769194,9.66877571704709 L 23.287335941076204,7.9075767750892965 L 24.622671993192057,7.089281789921046 L 26.508074202595278,7.268345608892936 L 28.662446512241285,8.122693363146695 L 30.73917366138208,9.068660526041477 L 32.46717940812857,9.484042144203194 L 33.74846778773715,8.95331512005827 L 34.67663321020852,7.437711379622073 L 35.476201264377465,5.300343734127793 L 36.39545744320434,3.1728573742522386 L 37.60202089007732,1.7130594460589066 L 39.12486800071473,1.34745620146834 L 40.862658294664946,2.100377337271894 L 42.64758014310914,3.578647992028529 L 44.33034510141136,5.12006020826513 L 45.8454162478872,6.0490947450893415 L 47.22799758040201,5.940283234396553 L 48.57908266617628,4.785677310068273 L 49.99999999999999,3.0000000000000355 L 51.531694019520316,1.2607060155529695 L 53.13030641615744,0.24520429334591398 L 54.69159769982754,0.3680805822211468 L 56.11166905645597,1.6211578681739454 L 57.35241985689085,3.5786479920285004 L 58.476501865723044,5.564621094231349 L 59.63033269198969,6.916368176289389 L 60.978870283573656,7.240123407849772 L 62.62062141089189,6.559536172115166 L 64.52379873562252,5.300343734127793 L 66.5179977132659,4.119496338680712 L 68.35217574009684,3.6476952064460875 L 69.79908112779792,4.247023041502544 L 70.76242706849885,5.877596542152638 L 71.33755348775867,8.122693363146652 L 71.7929195681565,10.358826466983942 L 72.47256507372695,12.000967671708267 L 73.65505466910189,12.725598227721278 L 75.42676579886947,12.585650301144128 L 77.62590685774623,11.976201264377458 L 79.88740470317963,11.46939002844433 L 81.77760623546843,11.587472668237027 L 82.9684925466697,12.604585665216838 L 83.38081405874148,14.453043485447033 L 83.23401871576775,16.765981284232183 L 82.97609446305975,19.033386101444744 L 83.11502621048008,20.80517720624646 L 84.01571748916123,21.859751199091626 L 85.74396119175924,22.27414165979985 L 88.0237987356225,22.37409314225376 L 90.33122428295289,22.59092828076921 L 92.09242322491066,23.287335941076176 L 92.91071821007894,24.622671993192007 L 92.7316543911071,26.50807420259521 L 91.87730663685329,28.662446512241292 L 90.93133947395856,30.739173661382015 L 90.5159578557968,32.46717940812857 L 91.04668487994174,33.74846778773714 L 92.5622886203779,34.67663321020852 L 94.69965626587219,35.47620126437747 L 96.82714262574777,36.395457443204336 L 98.28694055394108,37.60202089007727 L 98.65254379853167,39.12486800071467 L 97.89962266272809,40.862658294664946 L 96.4213520079715,42.64758014310913 L 94.87993979173486,44.33034510141136 L 93.95090525491068,45.84541624788716 L 94.05971676560344,47.22799758040201 L 95.2143226899317,48.57908266617628 L 96.99999999999999,49.999999999999986 Z" fill="black"/></svg>